<?xml version="1.0" encoding="UTF-8" standalone="no"?>
<svg
   xmlns:dc="http://purl.org/dc/elements/1.1/"
   xmlns:cc="http://creativecommons.org/ns#"
   xmlns:rdf="http://www.w3.org/1999/02/22-rdf-syntax-ns#"
   xmlns:svg="http://www.w3.org/2000/svg"
   xmlns="http://www.w3.org/2000/svg"
   xmlns:sodipodi="http://sodipodi.sourceforge.net/DTD/sodipodi-0.dtd"
   xmlns:inkscape="http://www.inkscape.org/namespaces/inkscape"
   version="1.1"
   id="Capa_1"
   x="0px"
   y="0px"
   viewBox="0 0 512 512"
   style="enable-background:new 0 0 512 512"
   xml:space="preserve"
   sodipodi:docname="icondd.svg"
   inkscape:version="1.0.1 (3bc2e813f5, 2020-09-07)"><metadata
   id="metadata61"><rdf:RDF><cc:Work
       rdf:about=""><dc:format>image/svg+xml</dc:format><dc:type
         rdf:resource="http://purl.org/dc/dcmitype/StillImage" /><dc:title></dc:title></cc:Work></rdf:RDF></metadata><defs
   id="defs59" /><sodipodi:namedview
   pagecolor="#ffffff"
   bordercolor="#666666"
   borderopacity="1"
   objecttolerance="10"
   gridtolerance="10"
   guidetolerance="10"
   inkscape:pageopacity="0"
   inkscape:pageshadow="2"
   inkscape:window-width="1748"
   inkscape:window-height="1012"
   id="namedview57"
   showgrid="false"
   inkscape:zoom="1.4355469"
   inkscape:cx="256"
   inkscape:cy="256"
   inkscape:window-x="408"
   inkscape:window-y="25"
   inkscape:window-maximized="0"
   inkscape:current-layer="Capa_1"
   inkscape:document-rotation="0" />
<path
   style="fill:#919191"
   d="M252.338,460.412l69.159,39.945l23.081-39.945l115.833-200.749l39.945-69.159l-39.945-23.081  l-112.171-64.73l-24.104-13.883v39.434c0,18.814-15.254,34.069-34.069,34.069S256,147.057,256,128.243l0,0  c0,18.814,15.254,34.069,34.069,34.069s34.069-15.254,34.069-34.069V88.808L256,49.459l0,0l-65.497-37.816l-52.551,91.048  l-35.261,61.068L11.643,321.497l91.048,52.551L252.338,460.412z M281.551,94.174v17.034c0,9.411,7.623,17.034,17.034,17.034l0,0  c-9.411,0-17.034-7.623-17.034-17.034V94.174z M330.9,264.824l-132.765-76.654L330.9,264.824z M305.348,311.361l-132.765-76.654  L305.348,311.361z M279.797,357.899l-132.765-76.654L279.797,357.899z"
   id="path2" />
<g
   id="g12">
	<polygon
   style="fill:#afafaf"
   points="102.691,102.691 102.691,163.759 137.952,102.691 "
   id="polygon4" />
	<polygon
   style="fill:#afafaf"
   points="102.691,460.412 252.338,460.412 102.691,374.048 "
   id="polygon6" />
	<polygon
   style="fill:#afafaf"
   points="460.412,102.691 348.241,102.691 460.412,167.422 "
   id="polygon8" />
	<polygon
   style="fill:#afafaf"
   points="460.412,460.412 460.412,259.662 344.578,460.412 "
   id="polygon10" />
</g>
<g
   id="g24">
	<path
   style="fill:#1e1e1e"
   d="M 468.929,261.962 511.992,187.36 468.929,162.533 V 94.174 H 350.54 L 332.654,83.86 V 43.071 C 332.484,19.555 313.286,0.622 289.77,0.783 269.533,0.928 252.192,15.296 248.283,35.158 L 187.386,0 133.03,94.174 H 94.174 v 67.285 L 0.009,324.623 94.175,378.979 v 89.95 H 250.039 L 324.648,512 349.475,468.929 H 468.928 V 261.962 Z M 451.894,111.208 v 41.461 l -71.851,-41.461 c 10e-4,0 71.851,0 71.851,0 z M 264.517,43.071 c 0,-14.113 11.439,-25.551 25.551,-25.551 14.113,0 25.551,11.439 25.551,25.551 v 30.96 L 264.516,44.528 v -1.457 z m -153.309,68.137 h 11.984 l -11.984,20.765 z m 0,340.686 v -63.087 l 109.284,63.087 z M 318.38,488.723 23.277,318.38 193.62,23.277 l 122,70.42 v 34.546 c 0,14.113 -11.439,25.551 -25.551,25.551 -14.113,0 -25.551,-11.439 -25.551,-25.551 V 77.14 h -17.034 v 51.103 c 0,23.516 19.07,42.586 42.586,42.586 23.516,0 42.586,-19.07 42.586,-42.586 v -24.7 l 156.068,90.069 z m 40.942,-36.829 45.729,-79.21 46.844,-81.185 v 160.395 z"
   id="path14" />
	<path
   style="fill:#1e1e1e"
   d="m 298.586,136.76 h 8.517 v -17.034 h -8.517 c -4.701,0 -8.517,-3.816 -8.517,-8.517 V 94.174 h -17.034 v 17.034 c -0.001,14.113 11.438,25.552 25.551,25.552 z"
   id="path16" />

		<rect
   x="256.017"
   y="149.843"
   transform="matrix(-0.4999,0.8661,-0.8661,-0.4999,592.9402,110.6147)"
   style="fill:#1e1e1e"
   width="17.035"
   height="153.311"
   id="rect18" />

		<rect
   x="230.48199"
   y="196.408"
   transform="matrix(-0.5,0.866,-0.866,-0.5,594.9771,202.6153)"
   style="fill:#1e1e1e"
   width="17.034"
   height="153.30499"
   id="rect20" />

		<rect
   x="204.89999"
   y="242.903"
   transform="matrix(-0.5,0.866,-0.866,-0.5,596.8688,294.5133)"
   style="fill:#1e1e1e"
   width="17.034"
   height="153.30499"
   id="rect22" />
</g>
</svg>
