<?xml version="1.0" encoding="iso-8859-1"?>
<!-- Generator: Adobe Illustrator 19.0.0, SVG Export Plug-In . SVG Version: 6.00 Build 0)  -->
<svg version="1.1" id="Capa_1" xmlns="http://www.w3.org/2000/svg" xmlns:xlink="http://www.w3.org/1999/xlink" x="0px" y="0px"
	 viewBox="0 0 512 512" style="enable-background:new 0 0 512 512;" xml:space="preserve">
<path style="fill:#FFDA44;" d="M252.338,460.412l69.159,39.945l23.081-39.945l115.833-200.749l39.945-69.159l-39.945-23.081
	l-112.171-64.73l-24.104-13.883v39.434c0,18.814-15.254,34.069-34.069,34.069S256,147.057,256,128.243l0,0
	c0,18.814,15.254,34.069,34.069,34.069s34.069-15.254,34.069-34.069V88.808L256,49.459l0,0l-65.497-37.816l-52.551,91.048
	l-35.261,61.068L11.643,321.497l91.048,52.551L252.338,460.412z M281.551,94.174v17.034c0,9.411,7.623,17.034,17.034,17.034l0,0
	c-9.411,0-17.034-7.623-17.034-17.034V94.174z M330.9,264.824l-132.765-76.654L330.9,264.824z M305.348,311.361l-132.765-76.654
	L305.348,311.361z M279.797,357.899l-132.765-76.654L279.797,357.899z"/>
<g>
	<polygon style="fill:#96C9EF;" points="102.691,102.691 102.691,163.759 137.952,102.691 	"/>
	<polygon style="fill:#96C9EF;" points="102.691,460.412 252.338,460.412 102.691,374.048 	"/>
	<polygon style="fill:#96C9EF;" points="460.412,102.691 348.241,102.691 460.412,167.422 	"/>
	<polygon style="fill:#96C9EF;" points="460.412,460.412 460.412,259.662 344.578,460.412 	"/>
</g>
<g>
	<path style="fill:#231F20;" d="M468.929,261.962l43.063-74.602l-43.063-24.827V94.174H350.54L332.654,83.86V43.071
		c-0.17-23.516-19.368-42.449-42.884-42.288c-20.237,0.145-37.578,14.513-41.487,34.375L187.386,0l-54.356,94.174H94.174v67.285
		L0.009,324.623l94.166,54.356v89.95h155.864L324.648,512l24.827-43.071h119.453V261.962z M451.894,111.208v41.461l-71.851-41.461
		C380.044,111.208,451.894,111.208,451.894,111.208z M264.517,43.071c0-14.113,11.439-25.551,25.551-25.551
		c14.113,0,25.551,11.439,25.551,25.551v30.96l-51.103-29.503V43.071z M111.208,111.208h11.984l-11.984,20.765V111.208z
		 M111.208,451.894v-63.087l109.284,63.087L111.208,451.894L111.208,451.894z M318.38,488.723L23.277,318.38L193.62,23.277
		l122,70.42v34.546c0,14.113-11.439,25.551-25.551,25.551c-14.113,0-25.551-11.439-25.551-25.551V77.14h-17.034v51.103
		c0,23.516,19.07,42.586,42.586,42.586c23.516,0,42.586-19.07,42.586-42.586v-24.7l156.068,90.069L318.38,488.723z M359.322,451.894
		l45.729-79.21l46.844-81.185v160.395H359.322z"/>
	<path style="fill:#231F20;" d="M298.586,136.76h8.517v-17.034h-8.517c-4.701,0-8.517-3.816-8.517-8.517V94.174h-17.034v17.034
		C273.034,125.321,284.473,136.76,298.586,136.76z"/>
	
		<rect x="256.017" y="149.843" transform="matrix(-0.4999 0.8661 -0.8661 -0.4999 592.9402 110.6147)" style="fill:#231F20;" width="17.035" height="153.311"/>
	
		<rect x="230.482" y="196.408" transform="matrix(-0.5 0.866 -0.866 -0.5 594.9771 202.6153)" style="fill:#231F20;" width="17.034" height="153.305"/>
	
		<rect x="204.9" y="242.903" transform="matrix(-0.5 0.866 -0.866 -0.5 596.8688 294.5133)" style="fill:#231F20;" width="17.034" height="153.305"/>
</g>
<g>
</g>
<g>
</g>
<g>
</g>
<g>
</g>
<g>
</g>
<g>
</g>
<g>
</g>
<g>
</g>
<g>
</g>
<g>
</g>
<g>
</g>
<g>
</g>
<g>
</g>
<g>
</g>
<g>
</g>
</svg>
