<svg version="1.0" viewBox="0 0 145.82 144.64" xmlns="http://www.w3.org/2000/svg" xmlns:xlink="http://www.w3.org/1999/xlink">
 <defs>
  <linearGradient id="linearGradient2026" x1="-344.15" x2="-395.85" y1="274.71" y2="425.4" gradientTransform="matrix(-.65718 0 0 .65718 -16.966 114.63)" gradientUnits="userSpaceOnUse">
   <stop style="stop-color:#fff" offset="0"/>
   <stop style="stop-color:#fff;stop-opacity:0" offset="1"/>
  </linearGradient>
 </defs>
 <g transform="translate(-318.52 -325.57)">
  <g transform="matrix(.9 0 0 .9 170.16 46.297)">
   <rect transform="scale(-1,1)" x="-318.76" y="318.34" width="145.82" height="144.64" rx="39.431" ry="39.431" style="fill-rule:evenodd;fill:#f00a10;stroke-dasharray:0.875, 1.75;stroke-linecap:square;stroke-width:.875"/>
   <g transform="matrix(.65718 0 0 .65718 -102.64 -95.387)">
    <path d="m554.13 739.6 35.778-35.778c3.7481-3.7483 5.6222-7.894 5.6222-12.437-0.22723-4.089-2.1013-7.8939-5.6222-11.415-3.1803-3.1803-6.9284-4.9976-11.244-5.4518-4.4297-0.34085-8.6321 1.4764-12.607 5.4518l-35.778 35.778-35.778-35.778c-3.6345-3.6347-7.7234-5.452-12.267-5.4518-4.4296 0.34063-8.2913 2.1579-11.585 5.4518-2.8394 2.8394-4.4864 6.5307-4.9408 11.074-0.45425 4.7702 1.1927 9.0295 4.9408 12.778l35.778 35.778-35.778 35.778c-3.1802 3.18-4.9407 7.3257-5.2815 12.437 0.34082 4.4294 2.1013 8.2343 5.2815 11.415 2.9531 2.9529 6.7013 4.7701 11.244 5.4519 4.4297 0.34051 8.6321-1.4768 12.607-5.4519l35.778-35.778 35.778 35.778c3.7481 3.7479 7.8938 5.3948 12.437 4.9407 4.6567-0.34096 8.4617-1.9879 11.415-4.9407 2.7259-2.7262 4.3728-6.4175 4.9407-11.074 0.68142-4.5434-0.96549-8.8027-4.9407-12.778l-35.778-35.778" style="fill:#cb1e0e;stroke-width:1px"/>
    <path d="m552.28 739.6 32.987-32.987c3.4557-3.4559 5.1836-7.2782 5.1837-11.467-0.2095-3.7701-1.9374-7.2782-5.1837-10.524-2.9322-2.9323-6.388-4.6078-10.367-5.0266-4.0842-0.31426-7.9588 1.3613-11.624 5.0266l-32.987 32.987-32.987-32.987c-3.351-3.3512-7.121-5.0267-11.31-5.0266-4.0841 0.31406-7.6446 1.9896-10.682 5.0266-2.618 2.6179-4.1364 6.0214-4.5554 10.21-0.41882 4.3982 1.0996 8.3252 4.5554 11.781l32.987 32.987-32.987 32.987c-2.9321 2.932-4.5553 6.7543-4.8695 11.467 0.31423 4.0839 1.9374 7.5921 4.8695 10.524 2.7228 2.7226 6.1786 4.3981 10.367 5.0266 4.0842 0.31395 7.9588-1.3616 11.624-5.0266l32.987-32.987 32.987 32.987c3.4558 3.4556 7.2781 4.974 11.467 4.5554 4.2935-0.31437 7.8017-1.8328 10.524-4.5554 2.5132-2.5135 4.0317-5.917 4.5554-10.21 0.62827-4.189-0.89018-8.1161-4.5554-11.781l-32.987-32.987" style="fill:#fff;stroke-width:1px"/>
   </g>
  </g>
 </g>
</svg>
