<svg version="1.0" viewBox="0 0 90 90" xmlns="http://www.w3.org/2000/svg">
 <path d="m88.227 44.758c0 23.901-19.375 43.276-43.276 43.276-23.901 0-43.276-19.375-43.276-43.276 0-23.901 19.375-43.276 43.276-43.276 23.901 0 43.276 19.375 43.276 43.276z" style="fill-rule:evenodd"/>
 <path d="m82.73 44.758c0 20.864-16.914 37.778-37.778 37.778s-37.778-16.914-37.778-37.778c0-20.864 16.914-37.778 37.778-37.778s37.778 16.914 37.778 37.778z" style="fill-rule:evenodd;fill:#ff1500"/>
 <path d="m32.145 18.218c-1.8626-1.829-7.7869 2.9241-9.5796 4.8217-1.7927 1.8976-6.0443 7.9153-4.1292 9.6892l13.375 12.388-12.841 13.666c-1.7876 1.9024 2.7753 7.3482 4.6729 9.1409 1.8976 1.7927 7.3096 5.7704 9.0939 3.8649l13.009-13.893 12.961 12.596c1.8721 1.8193 8.3226-1.8548 10.115-3.7523s5.0717-7.9258 3.1882-9.7332l-14.025-13.458 12.542-13.847c1.7524-1.9348-1.1905-6.3424-3.0881-8.1351-1.8976-1.7927-7.8188-5.1968-9.6204-3.3076l-12.395 12.998-13.278-13.038z" style="fill-opacity:.99633;fill-rule:evenodd;stroke-width:.7112"/>
 <path d="m31.233 21.825c-1.2615-1.1875-5.64 1.6918-6.8298 2.9512-1.1898 1.2594-3.8333 5.2167-2.5749 6.4076l14.435 13.66-14.555 15.456c-1.1878 1.2613 1.623 4.8184 2.8823 6.0082 1.2594 1.1898 5.1328 4.229 6.3193 2.9665l14.574-15.508 14.739 13.689c1.2695 1.179 5.3675-1.3859 6.5573-2.6453 1.1898-1.2594 3.3614-5.6293 2.1197-6.8375l-14.826-14.427 14.004-14.509c1.2032-1.2466-1.5183-4.6311-2.7777-5.8209-1.2594-1.1898-5.0271-3.6528-6.2587-2.4343l-14.099 13.948-13.709-12.905z" style="fill-rule:evenodd;fill:#fff;stroke-width:.83871pt"/>
 <path d="m20.632 17.659s24.9-21.667 48.184-0.32338c-25.547-12.612-32.015-6.1443-48.184 0.32338z" style="fill-rule:evenodd;fill:#ffd100;stroke-width:1pt"/>
 <path d="m70.11 71.316c-3.5572 5.4975-30.075 20.05-50.771 0.32338 25.547 8.7313 33.955 4.204 50.771-0.32338z" style="fill-rule:evenodd;fill:#830000;stroke-width:1pt"/>
</svg>
