<svg version="1.0" viewBox="0 0 90 90" xmlns="http://www.w3.org/2000/svg" xmlns:xlink="http://www.w3.org/1999/xlink">
 <defs>
  <linearGradient id="linearGradient612">
   <stop style="stop-color:#7fa8e3;stop-opacity:.74118" offset="0"/>
   <stop style="stop-color:#fff;stop-opacity:0" offset="1"/>
  </linearGradient>
  <linearGradient id="linearGradient615" x1="50.644" x2="35.752" y1="5.3679" y2="68.044" gradientTransform="matrix(.94593 0 0 .94593 2.218 1.3624)" gradientUnits="userSpaceOnUse" xlink:href="#linearGradient612"/>
 </defs>
 <path d="m16.167 74.349c-2.6474-0.042603-7.0858-1.8195-7.4733-6.588-1.3666-4.8178-6.1174-50.354-3.825-53.526 1.1845-2.4971 3.764-4.3301 8.3532-4.9656 3.7551-0.63198 37.912-5.571 40.431-4.8045 2.5187 0.76666 4.5028 1.4149 4.684 5.2597-0.18628 2.0909 6.158 44.74 7.1312 47.255 0.4644 2.9458-0.29794 7.0625-4.1818 8.4186-3.8838 1.356-42.053 8.3753-45.119 8.9509z" style="fill-rule:evenodd;fill:#3d4e67;stroke-width:1pt"/>
 <path d="m19.225 69.298c-2.5667 0.37244-6.132 1.151-6.5579-2.706-1.7733-9.1307-5.8393-45.318-2.9421-51.198 0.64708-1.3829 4.1603-3.2599 12.141-4.0435 9.0691-1.0026 27.678-2.5272 29.636-2.4282 1.9581 0.099066 2.5572-0.14462 2.9831 3.7125-0.17296 4.1008 5.7343 36.18 6.0833 41.86 0.27153 4.0319 0.73884 5.745-1.6572 6.7198" style="fill-rule:evenodd;fill:#fff;stroke-width:1pt"/>
 <path d="m10.367 20.854s0.23084-5.4721 6.8756-6.5618c6.6447-1.0897 32.961-4.8039 33.588-2.9077 0.62699 1.8962 1.4033 14.219 1.5969 15.216 0.19361 0.99685-22.083 9.5216-28.2 17.657-6.1171 8.1356-10.401 14.719-10.401 14.719s-3.5028-28.693-3.4585-38.122z" style="fill-rule:evenodd;fill:url(#linearGradient615);stroke-width:1pt"/>
 <path d="m37.038 85.609c-2.6474-0.042603-7.0858-1.8195-7.4733-6.588-1.3666-4.8178-6.1174-50.354-3.825-53.526 1.1845-2.4971 3.764-4.3302 8.3532-4.9656 3.7551-0.63199 37.912-5.571 40.431-4.8044 2.5187 0.76665 4.5028 1.4149 4.684 5.2597-0.18628 2.0909 6.158 44.74 7.1313 47.255 0.4644 2.9458-0.29794 7.0625-4.1818 8.4186-3.8838 1.356-42.053 8.3753-45.119 8.9509z" style="fill-rule:evenodd;fill:#3d4e67;stroke-width:1pt"/>
 <path d="m40.097 80.558c-2.5667 0.37244-6.132 1.151-6.5579-2.706-1.7733-9.1307-5.8393-45.318-2.9421-51.198 0.64708-1.3829 4.1603-3.2599 12.141-4.0435 9.0691-1.0026 27.678-2.5272 29.636-2.4281 1.9581 0.099066 2.5572-0.14462 2.9831 3.7125-0.17296 4.1008 5.7343 36.18 6.0833 41.86 0.27153 4.0319 0.73883 5.745-1.6572 6.7198" style="fill-rule:evenodd;fill:#fff;stroke-width:1pt"/>
 <path d="m31.239 32.114s0.23084-5.4721 6.8756-6.5618c6.6447-1.0897 32.961-4.8039 33.588-2.9077 0.62699 1.8962 1.4033 14.219 1.5969 15.216 0.19361 0.99685-22.083 9.5216-28.2 17.657-6.1171 8.1356-10.401 14.719-10.401 14.719s-3.5028-28.693-3.4585-38.122z" style="fill-rule:evenodd;fill:url(#linearGradient615);stroke-width:1pt"/>
</svg>
