<svg version="1.0" viewBox="0 0 90 90" xmlns="http://www.w3.org/2000/svg" xmlns:xlink="http://www.w3.org/1999/xlink">
 <defs>
  <linearGradient id="linearGradient625" x1="56.328" x2="51.655" y1="43.377" y2="39.763" gradientTransform="scale(.91266 1.0957)" gradientUnits="userSpaceOnUse">
   <stop style="stop-color:#b5772d" offset="0"/>
   <stop style="stop-color:#fff;stop-opacity:0" offset="1"/>
  </linearGradient>
  <linearGradient id="linearGradient622" x1="66.332" x2="63.465" y1="23.212" y2="20.963" gradientTransform="scale(1.0045 .9955)" gradientUnits="userSpaceOnUse">
   <stop style="stop-color:#700" offset="0"/>
   <stop style="stop-color:#fff;stop-opacity:0" offset="1"/>
  </linearGradient>
 </defs>
 <g transform="matrix(1.1838 .063285 -.063285 1.1838 -3.6479 -12.389)">
  <path transform="translate(3.8146 2.9343)" d="m9.3368 82.116c8.576-2.3515 21.574-4.5519 30.773-10.223 16.875-9.821 25.902-30.259 36.345-46.305 0.8299-13.279-12.342-19.619-17.322-16.714-12.656 16.599-21.578 34.65-35.687 47.099-4.3572 10.582-14.316 26.766-14.109 26.143z" style="fill-opacity:.28319;fill-rule:evenodd"/>
  <path d="m9.3368 82.116c8.576-2.3515 19.227-7.1928 28.425-12.864 16.875-9.821 26.489-30.846 36.932-46.892 0.8299-13.279-10.582-16.391-15.561-13.487-12.656 16.599-21.578 34.65-35.687 47.099-4.3572 10.582-14.316 26.766-14.109 26.143z" style="fill-rule:evenodd"/>
  <path d="m71.997 20.908c-1.729 2.4898-3.4581 4.9796-5.1871 7.4694-2.2823-5.3946-4.9796-8.0919-11.827-8.7143 2.2132-2.6973 4.4263-5.3946 6.6395-8.0919 5.5329-0.6225 9.8209 4.1497 10.374 9.3368z" style="fill-rule:evenodd;fill:#be6d6d"/>
  <path d="m54.776 20.908c5.3946-0.3458 9.1293 3.6656 11.204 8.2994-8.4377 13.625-15.423 27.042-29.67 37.762 0 0-3.5272-10.167-8.7143-8.9218 6.432-7.262 21.371-28.01 27.18-37.14z" style="fill-rule:evenodd;fill:#ffbc24"/>
  <path d="m27.077 58.67c4.6684-0.2421 8.6106 5.3255 7.5732 8.7144-2.0057 1.5215-5.2562 3.0431-7.2619 4.5646-0.3458-2.7664-2.144-4.9104-6.0171-4.5646 1.729-2.974 3.9768-5.7404 5.7058-8.7144z" style="fill-rule:evenodd;fill:#e9dbb9"/>
  <path d="m21.786 66.969c3.5618-0.8299 5.0488 2.6973 5.8096 4.7722l-13.279 6.017z" style="fill-rule:evenodd;fill:#586f93"/>
  <path d="m71.997 20.908c-1.729 2.4898-3.4581 4.9796-5.1871 7.4694-2.2823-5.3946-4.9796-8.0919-11.827-8.7143 2.2132-2.6973 4.4263-5.3946 6.6395-8.0919 5.5329-0.6225 9.8209 4.1497 10.374 9.3368z" style="fill-rule:evenodd;fill:url(#linearGradient622)"/>
  <path d="m62.868 12.193-5.3946 6.847 2.9048 1.0374 5.3946-6.432z" style="fill-rule:evenodd;fill:#fff"/>
  <path d="m54.776 20.908c5.3946-0.3458 9.1293 3.6656 11.204 8.2994-8.4377 13.625-15.423 27.042-29.67 37.762 0 0-3.5272-10.167-8.7143-8.9218 6.432-7.262 21.371-28.01 27.18-37.14z" style="fill-rule:evenodd;fill:url(#linearGradient625)"/>
  <path d="m29.67 56.18c1.2449 0.7608 2.4898 1.5215 3.7347 2.2823 9.1294-10.858 13.279-21.924 25.521-33.82-1.1758-0.7608-2.3515-1.5215-3.5273-2.2823-7.3311 12.726-15.7 25.036-25.728 33.82z" style="fill-rule:evenodd;fill:#fff"/>
  <path d="m34.754 67.28c0.2074-2.1786-0.3113-3.7348-1.4525-5.4984-1.5215 3.3889-3.873 5.8441-7.1582 6.6395-0.7262 0.6224 1.2449 1.9711 1.4524 3.216 1.8674-1.1412 7.1583-3.7347 7.1583-4.3571z" style="fill-rule:evenodd;fill:#9c7850"/>
 </g>
</svg>
