<svg version="1" viewBox="0 0 90 90" xmlns="http://www.w3.org/2000/svg" xmlns:xlink="http://www.w3.org/1999/xlink">
 <defs>
  <linearGradient id="linearGradient1857" x1="32.051" x2="32.051" y1="14.658" y2="75.934" gradientTransform="matrix(.99999 0 0 1 -.70126 -7.7139)" gradientUnits="userSpaceOnUse">
   <stop style="stop-color:#ffc93f" offset="0"/>
   <stop style="stop-color:#f1e36c" offset="1"/>
  </linearGradient>
 </defs>
 <g id="g2702">
  <path d="m45.319 7.3777c-2.8872-0.83332-5.8703 0.81346-6.7036 3.7006l-1.2401 4.2964c-1.2128 0.037951-2.4045 0.15063-3.5802 0.37551l-2.1477-3.8905c-1.4523-2.6308-4.7543-3.5838-7.3851-2.1316l-2.8497 1.5927c-2.6308 1.4523-3.5771 4.7311-2.1249 7.3619l2.1312 3.8605c-0.82878 0.8729-1.5823 1.81-2.272 2.8161l-4.2035-1.2132c-2.8872-0.83332-5.9002 0.82998-6.7335 3.7171l-0.90491 3.1352c-0.83332 2.8872 0.83668 5.877 3.7238 6.7103l4.1106 1.1864c0.032196 1.257 0.15555 2.4922 0.38844 3.7098l-3.7408 2.0651c-2.6308 1.4523-3.5771 4.7311-2.1249 7.3619l1.5927 2.8497c1.4523 2.6308 4.7311 3.5771 7.3619 2.1249l3.681-2.032c0.91788 0.87237 1.8935 1.6707 2.9585 2.3886l-1.1596 4.0177c-0.83332 2.8872 0.81346 5.8703 3.7006 6.7036l3.1352 0.90491c2.8872 0.83332 5.8703-0.81346 6.7036-3.7006l1.1663-4.0409c1.2735-0.041356 2.5146-0.18105 3.7464-0.42818l2.032 3.681c1.4523 2.6308 4.7311 3.5771 7.3619 2.1249l2.8663-1.5628c2.6308-1.4523 3.5838-4.7543 2.1316-7.3851l-2.0486-3.7109c0.84588-0.90621 1.6084-1.8857 2.3055-2.9322l4.1106 1.1864c2.8872 0.83332 5.8703-0.81346 6.7036-3.7006l0.90491-3.1352c0.83332-2.8872-0.80675-5.8935-3.6939-6.7268l-4.2035-1.2132c-0.04767-1.2228-0.20766-2.4164-0.44518-3.6003l3.8605-2.1312c2.6308-1.4523 3.5771-4.7311 2.1249-7.3619l-1.5628-2.8663c-1.4523-2.6308-4.7311-3.5771-7.3619-2.1249l-3.9204 2.1642c-0.87188-0.81465-1.7974-1.5649-2.7996-2.2421l1.2401-4.2964c0.83332-2.8872-0.81346-5.8703-3.7006-6.7036l-3.1352-0.90491zm-4.1617 20.259c5.8973 1.7021 9.3016 7.869 7.5995 13.766-1.7021 5.8973-7.869 9.3016-13.766 7.5995-5.8973-1.7021-9.3016-7.869-7.5995-13.766 1.7021-5.8973 7.869-9.3016 13.766-7.5995z" style="fill-opacity:.34444;stroke-linecap:round;stroke-linejoin:round;stroke-width:3.8675"/>
  <path d="m40.856 2.9149c-2.8872-0.83332-5.8703 0.81346-6.7036 3.7006l-1.2401 4.2964c-1.2128 0.037951-2.4045 0.15063-3.5802 0.37551l-2.1477-3.8905c-1.4523-2.6308-4.7543-3.5838-7.3851-2.1316l-2.8497 1.5927c-2.6308 1.4523-3.5771 4.7311-2.1249 7.3619l2.1312 3.8605c-0.82878 0.8729-1.5823 1.81-2.272 2.8161l-4.2035-1.2132c-2.8872-0.83332-5.9002 0.82998-6.7335 3.7171l-0.90491 3.1352c-0.83332 2.8872 0.83668 5.877 3.7238 6.7103l4.1106 1.1864c0.032196 1.257 0.15555 2.4922 0.38844 3.7098l-3.7408 2.0651c-2.6308 1.4523-3.5771 4.7311-2.1249 7.3619l1.5927 2.8497c1.4523 2.6308 4.7311 3.5771 7.3619 2.1249l3.681-2.032c0.91788 0.87237 1.8935 1.6707 2.9585 2.3886l-1.1596 4.0177c-0.83332 2.8872 0.81346 5.8703 3.7006 6.7036l3.1352 0.90491c2.8872 0.83332 5.8703-0.81346 6.7036-3.7006l1.1663-4.0409c1.2735-0.041356 2.5146-0.18105 3.7464-0.42818l2.032 3.681c1.4523 2.6308 4.7311 3.5771 7.3619 2.1249l2.8663-1.5628c2.6308-1.4523 3.5838-4.7543 2.1316-7.3851l-2.0486-3.7109c0.84588-0.90621 1.6084-1.8857 2.3055-2.9322l4.1106 1.1864c2.8872 0.83332 5.8703-0.81346 6.7036-3.7006l0.90491-3.1352c0.83332-2.8872-0.80675-5.8935-3.6939-6.7268l-4.2035-1.2132c-0.04767-1.2228-0.20766-2.4164-0.44518-3.6003l3.8605-2.1312c2.6308-1.4523 3.5771-4.7311 2.1249-7.3619l-1.5628-2.8663c-1.4523-2.6308-4.7311-3.5771-7.3619-2.1249l-3.9204 2.1642c-0.87188-0.81465-1.7974-1.5649-2.7996-2.2421l1.2401-4.2964c0.83332-2.8872-0.81346-5.8703-3.7006-6.7036l-3.1352-0.90491zm-4.1617 20.259c5.8973 1.7021 9.3016 7.869 7.5995 13.766-1.7021 5.8973-7.869 9.3016-13.766 7.5995-5.8973-1.7021-9.3016-7.869-7.5995-13.766 1.7021-5.8973 7.869-9.3016 13.766-7.5995z" style="fill:url(#linearGradient1857);stroke-linecap:round;stroke-linejoin:round;stroke-width:3.8675;stroke:#593a28"/>
 </g>
 <use transform="matrix(.5086 0 0 .5086 51.843 50.828)" width="90" height="90" xlink:href="#g2702"/>
</svg>
