<svg version="1.0" viewBox="0 0 90 90" xmlns="http://www.w3.org/2000/svg" xmlns:xlink="http://www.w3.org/1999/xlink">
 <defs>
  <linearGradient id="linearGradient867">
   <stop style="stop-color:#92b5d7;stop-opacity:.78039" offset="0"/>
   <stop style="stop-color:#fff;stop-opacity:.32157" offset="1"/>
  </linearGradient>
  <linearGradient id="linearGradient863" x1="37.126" x2="68.41" y1="43.839" y2="44.935" gradientTransform="scale(1.0369 .96444)" gradientUnits="userSpaceOnUse" spreadMethod="reflect">
   <stop style="stop-color:#92b5d7" offset="0"/>
   <stop style="stop-color:#fff" offset="1"/>
  </linearGradient>
  <linearGradient id="linearGradient866" x1="38.647" x2="39.495" y1="64.399" y2="29.978" gradientTransform="scale(1.261 .793)" gradientUnits="userSpaceOnUse" xlink:href="#linearGradient867"/>
  <linearGradient id="linearGradient871" x1="28.198" x2="33.435" y1="108.29" y2="93.439" gradientTransform="scale(1.5209 .6575)" gradientUnits="userSpaceOnUse" xlink:href="#linearGradient867"/>
 </defs>
 <g transform="matrix(.88843 0 0 .88843 4.7645 2.2113)">
  <path transform="matrix(1.1245 0 0 1.1245 -6.5428 -1.6541)" d="m11.27 13.544c-0.4119 0-1.9737 42.838 1.1198 46.153 8.6543 10.111 62.52 23.011 63.846 21.022 1.3258-1.9887 10.768-41.191 7.2319-43.842-10.538-13.155-70.872-26.647-72.197-23.333z" style="fill-opacity:.3;fill-rule:evenodd;stroke-width:1pt"/>
  <path transform="matrix(1.1245 0 0 1.1245 -10.962 -8.9461)" d="m11.27 13.544c-0.4119 0-1.9737 42.838 1.1198 46.153 8.6543 10.111 62.52 23.011 63.846 21.022 1.3258-1.9887 10.768-41.191 7.2319-43.842-10.538-13.155-70.872-26.647-72.197-23.333z" style="fill-rule:evenodd;fill:#3d4e67;stroke-width:1pt"/>
  <path transform="translate(-5.0823 -3.0936)" d="m11.27 13.544s-1.7678 42.426 1.3258 45.741c3.0936 3.3146 62.314 23.423 63.64 21.434 1.3258-1.9887 9.9437-42.426 6.4081-45.078-3.5355-2.6517-70.048-25.412-71.374-22.097z" style="fill:url(#linearGradient863);stroke-width:1pt"/>
  <path transform="translate(-5.0823 -3.0936)" d="m13.921 59.948c-0.663 0.221 13.7-3.5356 18.562-6.8502 0.4419-0.2209 10.386 0.442 13.479 3.5356 3.0935 3.0936 22.318 19.446 28.505 24.086-10.165-0.6629-53.033-7.734-60.546-20.771z" style="fill-rule:evenodd;fill:#3d4e67;stroke-width:1pt"/>
  <path transform="matrix(.83768 0 0 .83768 .10584 7.2206)" d="m13.921 59.948c0.2209 0 14.363-1.9888 19.224-5.3034 0.4419-0.2209 9.7227-0.4419 12.816 2.6517 3.0935 3.0936 26.737 23.202 28.505 23.423 1.7678 0.221-55.022-11.932-60.546-20.771z" style="fill-rule:evenodd;fill:#fff;stroke-width:1pt"/>
  <path transform="translate(-5.0823 -3.0936)" d="m81.759 35.42s-41.985 24.749-45.741 21.434c-8.3969-7.955-24.97-43.752-24.307-44.415 2.4307-1.9887 53.254 7.734 70.048 22.981z" style="fill-rule:evenodd;fill:#3d4e67;stroke-width:1pt"/>
  <path transform="matrix(.87226 0 0 .87226 .22326 .89315)" d="m84.039 35.674c-2.28 1.0134-44.265 24.496-48.021 21.181-8.3969-7.955-25.73-44.766-25.067-45.428 2.4307-1.9887 55.027 9.5073 73.088 24.248z" style="fill-rule:evenodd;fill:#fff;stroke-width:1pt"/>
  <path transform="matrix(.87226 0 0 .87226 .22326 .89315)" d="m84.039 35.674c-2.28 1.0134-44.265 24.496-48.021 21.181-8.3969-7.955-25.73-44.766-25.067-45.428 2.4307-1.9887 55.027 9.5073 73.088 24.248z" style="fill-rule:evenodd;fill:url(#linearGradient866);stroke-width:1pt"/>
  <path transform="matrix(.83768 0 0 .83768 .10584 7.2206)" d="m13.921 59.948c0.2209 0 14.363-1.9888 19.224-5.3034 0.4419-0.2209 9.7227-0.4419 12.816 2.6517 3.0935 3.0936 26.737 23.202 28.505 23.423 1.7678 0.221-55.022-11.932-60.546-20.771z" style="fill-rule:evenodd;fill:url(#linearGradient871);stroke-width:1pt"/>
 </g>
 <g transform="matrix(3.2526 0 0 3.2526 -8.2148 8.8534)">
  <path transform="matrix(.28467 0 0 .29061 12.88 -.44375)" d="m51.948 68.739a11.94 10.997 0 1 1-23.879 0 11.94 10.997 0 1 1 23.879 0z" style="fill-opacity:.3;fill-rule:evenodd;stroke-width:1pt"/>
  <path d="m22.124 15.98 2.031 2.0497 3.0999-0.81282 1.5321-11.415-2.4585-2.8625-6.3067 0.53009 2.1022 12.51z" style="fill-opacity:.3;fill-rule:evenodd;stroke-width:1pt"/>
  <path d="m21.087 15.521 1.9593 1.9937 2.9905-0.7906 1.4781-11.103-2.3718-2.7843-6.0841 0.5156 2.028 12.168z" style="fill-rule:evenodd;fill:#2c0000;stroke-width:1pt"/>
  <path d="m25.281 4.1431 1.2374 1.2374-1.2718 10.724-1.8218 0.48122-1.1687-1.3062 2.2686-0.37809 0.75623-10.759z" style="fill:none;stroke-width:1pt"/>
  <path d="m24.868 3.7993-0.68746 10.896-2.1655 0.3094 1.3062 1.478 1.9249-0.37811 1.2374-10.381-1.6155-1.9249z" style="fill-rule:evenodd;fill:#790000;stroke-width:1pt"/>
  <path d="m20.331 4.3493 1.753 10.759 2.1999-0.48125 0.6531-10.69-4.606 0.41249z" style="fill-rule:evenodd;fill:#f00;stroke-width:1pt"/>
  <path transform="matrix(.25588 0 0 .27185 13.688 .63916)" d="m51.948 68.739a11.94 10.997 0 1 1-23.879 0 11.94 10.997 0 1 1 23.879 0z" style="fill-rule:evenodd;fill:#2c0000;stroke-width:1pt"/>
  <path d="m26.194 19.479c0 1.1564-0.92873 2.0949-2.073 2.0949-1.1444 0-2.0731-0.93851-2.0731-2.0949s2.5872-0.45078 2.0731-2.0949c1.1443 0 2.073 0.93851 2.073 2.0949z" style="fill-rule:evenodd;fill:#790000;stroke-width:1pt"/>
  <path d="m25.409 19.173c0 1.0841-0.85052 1.964-1.8985 1.964-1.048 0-1.8985-0.87986-1.8985-1.964 0-1.0841 0.85052-1.964 1.8985-1.964 1.048 0 1.8985 0.87986 1.8985 1.964z" style="fill-rule:evenodd;fill:#f00;stroke-width:1pt"/>
 </g>
</svg>
