<svg version="1.0" viewBox="0 0 90 90" xmlns="http://www.w3.org/2000/svg" xmlns:xlink="http://www.w3.org/1999/xlink">
 <defs>
  <linearGradient id="linearGradient3223" x1="10.446" x2="17.217" y1="7.4949" y2="16.213" gradientTransform="matrix(3.295 -.28141 .28141 3.295 -8.3014 1.5387)" gradientUnits="userSpaceOnUse">
   <stop style="stop-color:#ffe6ba" offset="0"/>
   <stop style="stop-color:#ffc93f" offset="1"/>
  </linearGradient>
  <linearGradient id="linearGradient2237" x1="25.097" x2="22.915" y1="19.736" y2="17.301" gradientTransform="matrix(3.295 -.28141 .28141 3.295 -8.3014 1.5387)" gradientUnits="userSpaceOnUse">
   <stop style="stop-color:#b01911" offset="0"/>
   <stop style="stop-color:#ffc93f" offset="1"/>
  </linearGradient>
  <linearGradient id="linearGradient2239" x1="25.653" x2="18.965" y1="20.318" y2="15.304" gradientTransform="matrix(3.295 -.28141 .28141 3.295 -8.3014 1.5387)" gradientUnits="userSpaceOnUse">
   <stop style="stop-color:#593a28" offset="0"/>
   <stop style="stop-color:#ff933d;stop-opacity:0" offset="1"/>
  </linearGradient>
 </defs>
 <path d="m1.5009 21.251c-1.8276 15.178 8.0584 57.012 16.108 68.073 13.81-1.7461 34.8-5.1673 48.769-9.7529 12.119-8.5921 15.298-20.597 16.276-35.32-6.2903-15.204-6.5774-24.701-8.9867-40.292-19.412 8.3255-40.525 14.99-72.167 17.292z" style="fill-opacity:.29412;fill-rule:evenodd;stroke-width:1px"/>
 <path d="m8.5582 14.883c-2.4834 15.085 5.5811 57.307 13.144 68.707 13.873-1.1462 34.991-3.655 49.146-7.6311 12.48-8.059 16.176-19.915 17.791-34.582-5.6258-15.463-5.5012-24.963-7.2328-40.643-19.754 7.4768-41.137 13.22-72.848 14.15z" style="fill-rule:evenodd;fill:#593a28;stroke-width:1px"/>
 <path d="m14.636 20.749c17.98-1.7982 43.521-3.5046 62.06-11.483 0.83693 9.8857 2.0106 20.401 5.2648 30.609-0.48748 7.932-8.7679 7.1783-15.575 10.295 3.0306 5.9044 5.0302 15.151-0.24413 18.462-10.687 6.7093-39.365 9.5496-40.78 8.0354-6.9199-17.591-10.868-36.983-10.725-55.919z" style="fill-rule:evenodd;fill:url(#linearGradient3223);stroke-width:1px"/>
 <path d="m69.341 68.591c6.0731-2.7503 12.529-14.381 13.183-24.561-2.9541 6.3188-8.9656 6.4409-11.933 7.8857 1.2083 2.9045 4.4608 12.065-1.2504 16.675z" style="fill-rule:evenodd;fill:url(#linearGradient2237);stroke-width:1px"/>
 <path d="m78.053 22.043c-31.37 7.745-39.885 14.657-40.304 54.322 9.5399-1.1635 22.065-3.7493 28.376-7.7116 5.2743-3.3112 3.2994-12.601 0.26888-18.505 6.8074-3.1164 15.126-2.3049 15.613-10.237-1.8795-5.8957-3.1262-11.948-3.9536-17.868z" style="fill-rule:evenodd;fill:url(#linearGradient2239);stroke-width:1px"/>
 <g transform="matrix(2.8055 0 0 2.8055 5.7161 6.0677)">
  <path d="m14.23 18.758c-0.67668-0.013059-0.94692 1.9375-0.94692 2.6143 0 0.67681 0.27015 2.5679 0.94692 2.5613l4.7263-0.046599 0.0131 4.862c0.001823 0.67681 1.8314 0.89074 2.5082 0.89074 0.67681 0 2.405-0.21394 2.402-0.89074l-0.021832-4.9346 4.6853 0.066187c0.67674 0.009555 1.2383-1.8314 1.2383-2.5082 0-0.67681-0.45533-2.3967-1.1321-2.402l-5.0395-0.039297-0.1018-4.8427c-0.014224-0.67666-1.3536-0.98334-2.0304-0.98334-0.67681 0-2.3988 0.41271-2.402 1.0895l-0.021832 4.6566z" style="fill-rule:evenodd;fill:#0d3d07;stroke-width:.26985;stroke:#0d3d07"/>
  <path d="m14.701 19.6c-0.44918 7.99e-4 -0.76173 1.323-0.76173 1.7722s0.20638 1.6657 0.65556 1.666l5.1525 0.004304 0.008695 5.5044c7.11e-4 0.44918 1.1638 0.61914 1.613 0.61914 0.44918 0 1.7203-0.11688 1.7191-0.56606l-0.014489-5.5174 5.2152-0.044388c0.44917-0.003825 0.76482-1.2169 0.76482-1.666s-0.36877-1.6594-0.81791-1.666l-5.3628-0.07917 0.055986-5.2277c0.004807-0.44916-1.1107-0.60248-1.5599-0.60248-0.44918 0-1.5978 0.20664-1.613 0.65556l-0.17374 5.1389z" style="fill-rule:evenodd;fill:#2aaf18"/>
  <path d="m21.782 22.556 0.040858 5.7753c0.00162 0.22918 0.057745 0.40062 0.28693 0.40062s0.68929-0.17144 0.68755-0.40062l-0.043813-5.782 5.7277 0.040858c0.22918 0.001636 0.43704-0.45837 0.43704-0.68755 0-0.22919-0.20787-0.28494-0.43704-0.28693l-5.7218-0.049729c-0.65256-0.005672-0.98206 0.33741-0.97744 0.98998z" style="fill-rule:evenodd;fill:#208c11"/>
  <path d="m21.143 20.056-0.004437-5.5204c-1.83e-4 -0.22918-0.094164-0.40062-0.32335-0.40062-0.22919 0-0.68786 0.17144-0.68755 0.40062l0.007394 5.527-5.3999-0.040857c-0.22918-0.001734-0.43704 0.45837-0.43704 0.68755 0 0.22918 0.20787 0.28482 0.43704 0.28693l5.394 0.049726c0.65256 0.006016 1.0144-0.3374 1.0139-0.98998z" style="fill-rule:evenodd;fill:#ebf8e9"/>
 </g>
</svg>
