<svg version="1.0" viewBox="0 0 90 90" xmlns="http://www.w3.org/2000/svg">
 <path d="m5.7088 45.85c1.1548 16.55 15.561 38.372 23.652 37.699 11.895-0.72964 20.607-8.5085 34.834-26.203 9.4336-12.056 12.48-16.652 20.136-36.956 2.1133-5.8016-6.5389-14.973-13.095-6.0493-20.774 28.535-31.659 36.397-36.383 37.636-5.9086 1.4071-6.3624-15.352-12.882-21.833-1.4594-1.4507-17.346 0.42344-16.262 15.707z" style="fill-rule:evenodd;fill:#0d3c07;stroke-width:1pt"/>
 <path d="m9.846 47.074c2.0143 10.873 14.498 34.097 19.788 32.96 5.5047-1.2033 12.161-6.9865 24.254-20.659 16.194-18.016 22.152-30.955 25.172-35.782 6.5894-10.791-2.3695-7.755-9.8242 2.9662-5.9159 8.7142-30.569 39.969-36.54 32.882-2.8708-3.5317-7.7016-19.077-12.048-23.397-0.97283-0.967-12.737 0.84065-10.802 11.029z" style="fill-rule:evenodd;fill:#2aaf18;stroke-width:1pt"/>
 <path d="m12.303 45.707c0.76666-1.6484 2.5274-2.1737 3.8703-1.2901 1.9311 1.1764 1.874 4.4247 0.43003 5.3037-1.2809 0.65255-4.77-1.6276-4.3003-4.0136z" style="fill-rule:evenodd;fill:#fff;stroke-width:1.3426pt;stroke:#fff"/>
 <path d="m24.343 69.645c2.2561 3.7539 11.231 2.2144 13.474 0 5.2808-5.3561-1.9658 5.6555-8.4572 5.5904-4.6574-0.047805-8.4697-11.097-5.017-5.5904z" style="fill-rule:evenodd;fill:#208c11;stroke-width:1.3426pt;stroke:#208c11"/>
</svg>
