<svg version="1.0" viewBox="0 0 90 90" xmlns="http://www.w3.org/2000/svg" xmlns:xlink="http://www.w3.org/1999/xlink">
 <defs>
  <linearGradient id="linearGradient615" x1="36.217" x2="37.965" y1="12.409" y2="72.903" gradientTransform="matrix(.96505 0 0 .96505 1.4292 2.0654)" gradientUnits="userSpaceOnUse">
   <stop style="stop-color:#955801;stop-opacity:.4471" offset="0"/>
   <stop style="stop-color:#000500;stop-opacity:0" offset="1"/>
  </linearGradient>
  <linearGradient id="linearGradient710" x1="36.217" x2="37.965" y1="12.409" y2="72.903" gradientTransform="matrix(.96505 0 0 .96505 1.4292 2.0654)" gradientUnits="userSpaceOnUse">
   <stop style="stop-color:#7fa8e3;stop-opacity:.74118" offset="0"/>
   <stop style="stop-color:#fff;stop-opacity:0" offset="1"/>
  </linearGradient>
 </defs>
 <path d="m65.484 7.7049c-2.7772-0.86891-40.463 4.7121-44.603 5.4284-5.0604 0.72026-7.892 2.8092-9.1981 5.6395-2.5278 3.595 2.7152 55.217 4.2221 60.677 0.42733 5.4048 5.3138 7.4007 8.2331 7.449 0.87855-0.16953 7.9928-1.5577 12.757-2.4729 1.417 1.4544 3.3476 2.1781 4.7649 2.2015 2.6763-0.51641 35.996-6.8052 39.386-8.022 3.3902-1.2168 4.0545-4.9263 3.6491-7.5696-0.84951-2.2566-6.3752-40.526-6.2125-42.402-0.15819-3.4498-1.9029-4.0167-4.1014-4.7046-0.22207-0.069477-1.6828 0.094902-2.4126 0.12063-0.41018-3.2795-1.367-9.9122-1.3269-10.374-0.19981-4.3579-2.3796-5.1023-5.157-5.9712z" style="fill-opacity:.3;fill-rule:evenodd;stroke-width:1pt"/>
 <path d="m19.164 84.731c-2.9192-0.048291-7.8133-2.0624-8.2406-7.4672-1.5069-5.4608-6.7455-57.075-4.2176-60.67 1.3062-2.8303 4.1504-4.908 9.2108-5.6283 4.1406-0.71633 41.804-6.3145 44.581-5.4456 2.7773 0.86897 4.9651 1.6038 5.1649 5.9616-0.20541 2.37 6.7901 50.711 7.8634 53.562 0.51209 3.339-0.32852 8.005-4.6111 9.5421-4.2825 1.537-46.371 9.4931-49.751 10.145z" style="fill-rule:evenodd;fill:#7e0000;stroke-width:1pt"/>
 <path d="m22.536 79.006c-2.8302 0.42215-6.7615 1.3047-7.2311-3.0672-1.9554-10.349-6.4388-51.366-3.2442-58.031 0.71352-1.5674 4.5874-3.6949 13.387-4.5831 10-1.1364 30.519-2.8645 32.678-2.7522 2.1591 0.11228 2.8197-0.16393 3.2893 4.208-0.19073 4.6481 6.323 41.008 6.7078 47.446 0.29942 4.57 0.8147 6.5118-1.8273 7.6166" style="fill-rule:evenodd;fill:#ffd056;stroke-width:1pt"/>
 <path d="m12.769 24.097s0.25454-6.2024 7.5814-7.4376c7.3269-1.2351 36.345-5.445 37.036-3.2957 0.69137 2.1492 1.5473 16.117 1.7608 17.247 0.21349 1.1299-24.35 10.792-31.096 20.014-6.7451 9.2214-11.469 16.683-11.469 16.683s-3.8625-32.522-3.8136-43.21z" style="fill-rule:evenodd;fill:url(#linearGradient615);stroke-width:1pt"/>
 <path d="m25.524 5.7077s14.569-2.5216 15.41-1.9612c0.84053 0.56035 0.84052 5.0432 1.681 5.6035s5.0432-0.28018 5.6035 0.84052c0.56035 1.1207 1.1207 5.8837 1.1207 5.8837l-26.897 4.2026s-3.6423-4.763-0.84053-6.444c2.8018-1.6811 5.0432-0.84053 5.0432-2.2414 0-1.4009-1.1207-5.8837-1.1207-5.8837z" style="fill-rule:evenodd;fill:#4e4e4e;stroke-width:1pt"/>
 <path d="m26.99 6.5528s12.301-2.1813 13.011-1.6966c0.70969 0.48474 0.42951 5.2032 1.1392 5.688 0.70968 0.48474 4.5382-1.0829 5.0114-0.11342 0.47311 0.96949 0.38587 2.8484 0.66605 4.5294l-22.149 3.6356c-0.84052-1.1207-2.7951-2.9996-0.42951-4.4538 2.3656-1.4542 4.8184-1.2875 4.8184-2.4993 0-1.2119-2.0669-5.0898-2.0669-5.0898z" style="fill-rule:evenodd;fill:#a4a4a4;stroke-width:1pt"/>
 <path d="m45.137 11.591 0.28017 3.0819-18.492 2.8017s17.371-2.5216 18.211-5.8837z" style="fill-rule:evenodd;fill:#f8f8f8;stroke-width:1pt"/>
 <path d="m28.326 7.1085 1.9612 3.9224s-6.7242 3.0819-6.7242 4.2026c0 1.1207 1.9612 2.8018 1.9612 2.8018l1.9612-0.56036s-2.2414-1.4009-1.1207-2.5216c1.1207-1.1207 7.2846-1.9612 6.1639-4.2026-1.1207-2.2414-3.6423-3.9224-4.2026-3.6423z" style="fill-rule:evenodd;fill:#656565;stroke-width:1pt"/>
 <path d="m37.72 84.905c-2.3109-0.038229-6.1852-1.6326-6.5235-5.9113-1.1929-4.3229-5.3399-45.182-3.3388-48.028 1.034-2.2406 3.2856-3.8853 7.2915-4.4555 3.2778-0.56706 33.093-4.9988 35.292-4.3109 2.1987 0.6879 3.9305 1.2696 4.0887 4.7194-0.16258 1.8762 5.3753 40.144 6.2249 42.401 0.40527 2.6432-0.26011 6.337-3.6503 7.5538-3.3901 1.2167-36.708 7.515-39.384 8.0314z" style="fill-rule:evenodd;fill:#3d4e67;stroke-width:1pt"/>
 <path d="m40.389 80.373c-2.2405 0.33419-5.3526 1.0328-5.7243-2.4281-1.5479-8.1927-5.0971-40.662-2.5682-45.939 0.56484-1.2408 3.6315-2.925 10.598-3.6281 7.9164-0.89959 24.16-2.2676 25.869-2.1787 1.7093 0.08889 2.2322-0.12977 2.6039 3.3312-0.15097 3.6795 5.0056 32.463 5.3101 37.56 0.23707 3.6178 0.6449 5.1549-1.4465 6.0295" style="fill-rule:evenodd;fill:#fff;stroke-width:1pt"/>
 <path d="m32.657 36.905s0.2015-4.91 6.0017-5.8878c5.8002-0.97776 28.771-4.3104 29.319-2.609 0.54729 1.7014 1.225 12.758 1.3939 13.653 0.16909 0.89445-19.276 8.5435-24.616 15.843-5.3396 7.2999-9.0792 13.207-9.0792 13.207s-3.0576-25.745-3.0189-34.206z" style="fill-rule:evenodd;fill:url(#linearGradient710);stroke-width:1pt"/>
</svg>
