<svg version="1.0" viewBox="0 0 90 90" xmlns="http://www.w3.org/2000/svg" xmlns:xlink="http://www.w3.org/1999/xlink">
 <defs>
  <linearGradient id="linearGradient615" x1="50.644" x2="35.752" y1="5.3679" y2="68.044" gradientTransform="matrix(.96036 0 0 .96036 .82483 1.4224)" gradientUnits="userSpaceOnUse">
   <stop style="stop-color:#7fa8e3;stop-opacity:.74118" offset="0"/>
   <stop style="stop-color:#fff;stop-opacity:0" offset="1"/>
  </linearGradient>
 </defs>
 <path d="m20.21 87.032c-3.4768-0.050946-9.3056-2.1756-9.8145-7.8773-1.7947-5.7607-8.0338-60.209-5.0232-64.001 1.5556-2.9858 4.9431-5.1776 10.97-5.9374 4.9315-0.75567 49.789-6.6613 53.096-5.7447 3.3078 0.91669 5.9134 1.6918 6.1513 6.289-0.24464 2.5002 8.0871 53.496 9.3652 56.503 0.60989 3.5223-0.39127 8.4446-5.4918 10.066-5.1004 1.6214-55.227 10.014-59.254 10.703z" style="fill-rule:evenodd;fill:#3d4e67;stroke-width:1pt"/>
 <path d="m24.226 80.993c-3.3708 0.44533-8.0529 1.3763-8.6122-3.2356-2.3289-10.918-7.6685-54.186-3.8638-61.218 0.84979-1.6535 5.4636-3.8978 15.944-4.8348 11.91-1.1988 36.348-3.0218 38.92-2.9034 2.5715 0.11845 3.3582-0.17293 3.9176 4.4391-0.22716 4.9033 7.5307 43.26 7.989 50.052 0.3566 4.821 0.9703 6.8693-2.1763 8.0348" style="fill-rule:evenodd;fill:#fff;stroke-width:1pt"/>
 <path d="m12.594 23.069s0.30316-6.543 9.0295-7.846c8.7263-1.3029 43.286-5.744 44.11-3.4767 0.8234 2.2673 1.8429 17.002 2.0971 18.194 0.25427 1.1919-29.001 11.385-37.035 21.113-8.0334 9.7278-13.66 17.599-13.66 17.599s-4.6002-34.308-4.542-45.583z" style="fill-rule:evenodd;fill:url(#linearGradient615);stroke-width:1pt"/>
 <g transform="matrix(.99504 -.13709 .13709 .99504 -8.2141 36.154)">
  <g transform="matrix(-.62294 .8551 .8551 .62294 37.309 -52.282)">
   <path transform="matrix(1.3696 0 0 1.2074 -21.854 -4.9976)" d="m51.966 36.049c1.9937 0.9968 13.506-1.2773 13.791-3.4133 0.41538-5.3228-10.126-11.92-11.693-12.49s-2.9521-0.0821-3.3793 0.9147-0.9968 14.276 1.2816 14.988z" style="fill-rule:evenodd;fill:#0d3c07;stroke-width:1pt"/>
   <path d="m51.551 35.459c1.9937 0.9968 12.674-0.5697 12.959-2.7057 0.2848-2.1361-3.554-3.085-3.1268-4.509-4.3644-5.0947-10.686-6.8834-11.114-5.8866s-0.9968 12.389 1.2816 13.101z" style="fill-rule:evenodd;fill:#2aaf18;stroke-width:1pt"/>
   <path d="m61.946 28.339c1.5664 1.2816 3.4177 4.4145 2.4209 5.269-1.7088 1.5664-11.535 2.7057-12.674 2.1361-1.1392-0.5697 8.4019-2.2785 8.5443-4.6994s-2.7792-3.0492-1.9248-4.4733c0.8544-1.424 3.2065 1.198 3.6337 1.7676z" style="fill-rule:evenodd;fill:#208c11;stroke-width:1pt"/>
  </g>
  <path d="m33.495 12.228s-4.9805-4.933-6.2208-5.2774c-1.2403-0.34433-0.54439 2.0266-0.54439 2.0266s6.3007 2.3533 6.7652 3.2508z" style="fill-rule:evenodd;fill:#fff;stroke-width:1pt"/>
 </g>
 <g transform="matrix(-.99504 .13709 .13709 .99504 90.913 22.497)">
  <g transform="matrix(-.62294 .8551 .8551 .62294 37.309 -52.282)">
   <path transform="matrix(1.3696 0 0 1.2074 -21.854 -4.9976)" d="m51.966 36.049c1.9937 0.9968 13.506-1.2773 13.791-3.4133 0.41538-5.3228-10.126-11.92-11.693-12.49s-2.9521-0.0821-3.3793 0.9147-0.9968 14.276 1.2816 14.988z" style="fill-rule:evenodd;fill:#0d3c07;stroke-width:1pt"/>
   <path d="m51.551 35.459c1.9937 0.9968 12.674-0.5697 12.959-2.7057 0.2848-2.1361-3.554-3.085-3.1268-4.509-4.3644-5.0947-10.686-6.8834-11.114-5.8866s-0.9968 12.389 1.2816 13.101z" style="fill-rule:evenodd;fill:#2aaf18;stroke-width:1pt"/>
   <path d="m61.946 28.339c1.5664 1.2816 3.4177 4.4145 2.4209 5.269-1.7088 1.5664-11.535 2.7057-12.674 2.1361-1.1392-0.5697 8.4019-2.2785 8.5443-4.6994s-2.7792-3.0492-1.9248-4.4733c0.8544-1.424 3.2065 1.198 3.6337 1.7676z" style="fill-rule:evenodd;fill:#208c11;stroke-width:1pt"/>
  </g>
  <path d="m33.495 12.228s-4.9805-4.933-6.2208-5.2774c-1.2403-0.34433-0.54439 2.0266-0.54439 2.0266s6.3007 2.3533 6.7652 3.2508z" style="fill-rule:evenodd;fill:#fff;stroke-width:1pt"/>
 </g>
 <g transform="matrix(-.13709 -.99504 -.99504 .13709 64.402 91.184)">
  <g transform="matrix(-.62294 .8551 .8551 .62294 37.309 -52.282)">
   <path transform="matrix(1.3696 0 0 1.2074 -21.854 -4.9976)" d="m51.966 36.049c1.9937 0.9968 13.506-1.2773 13.791-3.4133 0.41538-5.3228-10.126-11.92-11.693-12.49s-2.9521-0.0821-3.3793 0.9147-0.9968 14.276 1.2816 14.988z" style="fill-rule:evenodd;fill:#0d3c07;stroke-width:1pt"/>
   <path d="m51.551 35.459c1.9937 0.9968 12.674-0.5697 12.959-2.7057 0.2848-2.1361-3.554-3.085-3.1268-4.509-4.3644-5.0947-10.686-6.8834-11.114-5.8866s-0.9968 12.389 1.2816 13.101z" style="fill-rule:evenodd;fill:#2aaf18;stroke-width:1pt"/>
   <path d="m61.946 28.339c1.5664 1.2816 3.4177 4.4145 2.4209 5.269-1.7088 1.5664-11.535 2.7057-12.674 2.1361-1.1392-0.5697 8.4019-2.2785 8.5443-4.6994s-2.7792-3.0492-1.9248-4.4733c0.8544-1.424 3.2065 1.198 3.6337 1.7676z" style="fill-rule:evenodd;fill:#208c11;stroke-width:1pt"/>
  </g>
  <path d="m33.495 12.228s-4.9805-4.933-6.2208-5.2774c-1.2403-0.34433-0.54439 2.0266-0.54439 2.0266s6.3007 2.3533 6.7652 3.2508z" style="fill-rule:evenodd;fill:#fff;stroke-width:1pt"/>
 </g>
 <g transform="matrix(.13709 .99504 -.99504 .13709 50.745 -7.9434)">
  <g transform="matrix(-.62294 .8551 .8551 .62294 37.309 -52.282)">
   <path transform="matrix(1.3696 0 0 1.2074 -21.854 -4.9976)" d="m51.966 36.049c1.9937 0.9968 13.506-1.2773 13.791-3.4133 0.41538-5.3228-10.126-11.92-11.693-12.49s-2.9521-0.0821-3.3793 0.9147-0.9968 14.276 1.2816 14.988z" style="fill-rule:evenodd;fill:#0d3c07;stroke-width:1pt"/>
   <path d="m51.551 35.459c1.9937 0.9968 12.674-0.5697 12.959-2.7057 0.2848-2.1361-3.554-3.085-3.1268-4.509-4.3644-5.0947-10.686-6.8834-11.114-5.8866s-0.9968 12.389 1.2816 13.101z" style="fill-rule:evenodd;fill:#2aaf18;stroke-width:1pt"/>
   <path d="m61.946 28.339c1.5664 1.2816 3.4177 4.4145 2.4209 5.269-1.7088 1.5664-11.535 2.7057-12.674 2.1361-1.1392-0.5697 8.4019-2.2785 8.5443-4.6994s-2.7792-3.0492-1.9248-4.4733c0.8544-1.424 3.2065 1.198 3.6337 1.7676z" style="fill-rule:evenodd;fill:#208c11;stroke-width:1pt"/>
  </g>
  <path d="m33.495 12.228s-4.9805-4.933-6.2208-5.2774c-1.2403-0.34433-0.54439 2.0266-0.54439 2.0266s6.3007 2.3533 6.7652 3.2508z" style="fill-rule:evenodd;fill:#fff;stroke-width:1pt"/>
 </g>
</svg>
