<svg version="1.0" viewBox="0 0 90 90" xmlns="http://www.w3.org/2000/svg" xmlns:xlink="http://www.w3.org/1999/xlink">
 <defs>
  <linearGradient id="linearGradient689">
   <stop style="stop-color:#ffb700" offset="0"/>
   <stop style="stop-color:#fdffff;stop-opacity:0" offset="1"/>
  </linearGradient>
  <linearGradient id="linearGradient680" x1="68.312" x2="52.578" y1="71.296" y2="39.58" gradientTransform="matrix(.9901 0 0 .9676 .71313 -1.7959)" gradientUnits="userSpaceOnUse">
   <stop offset="0"/>
   <stop style="stop-color:#6a6762" offset="1"/>
  </linearGradient>
  <linearGradient id="linearGradient683" x1="49.026" x2="56.455" y1="44.34" y2="53.183" gradientTransform="matrix(.99596 0 0 .9619 .71313 -1.7959)" gradientUnits="userSpaceOnUse">
   <stop style="stop-color:#fff;stop-opacity:.64706" offset="0"/>
   <stop style="stop-color:#fdffff;stop-opacity:0" offset="1"/>
  </linearGradient>
  <linearGradient id="linearGradient688" x1="26.296" x2="31.716" y1="98.953" y2="102.83" gradientTransform="matrix(1.2988 0 0 .7376 .71313 -1.7959)" gradientUnits="userSpaceOnUse" xlink:href="#linearGradient689"/>
  <linearGradient id="linearGradient693" x1="33.579" x2="-14.069" y1="53.822" y2="26.553" gradientTransform="matrix(.76422 0 0 1.2536 .71313 -1.7959)" gradientUnits="userSpaceOnUse" xlink:href="#linearGradient689"/>
 </defs>
 <path d="m1.9825 47.445s13.766 17.86 25.207 32.568c2.1407 1.5727 15.736 7.1396 18.905 5.7975 2.8264-1.4904 41.088-26.992 41.774-30.017 1.0796-3.4104-0.24785-5.621-1.207-7.3262-0.78767-1.7052-26.388-35.979-27.373-36.831-0.98462-0.85258-3.7416-2.0462-7.0894-1.0231-8.5189 4.2568-35.327 18.779-48.959 30.974-1.7724 1.7052-1.455 4.1525-1.258 5.8577z" style="fill-opacity:.29825;fill-rule:evenodd;stroke-width:1pt"/>
 <path d="m9.3213 34.821v0.17569" style="fill:none;stroke-width:.97878pt;stroke:#000"/>
 <path d="m2.1185 40.619s12.281 18.4 22.487 33.554c1.9097 1.6203 14.038 7.3557 16.865 5.9729 2.5213-1.5355 36.654-27.808 37.266-30.925 0.96312-3.5136-0.22111-5.7912-1.0768-7.5479-0.70267-1.7568-23.541-37.068-24.419-37.946-0.87836-0.87839-3.3378-2.1081-6.3243-1.0541-7.5996 4.3857-31.514 19.347-43.675 31.911-1.5811 1.7568-1.298 4.2782-1.1223 6.035z" style="fill-rule:evenodd;fill:#261d14;stroke-width:1pt"/>
 <path d="m9.1456 34.997s18.27 28.635 18.973 29.865c0.70276 1.2297 2.2839 2.9866 5.446 3.8649 4.7433 1.9324 9.3108 3.6891 9.6622 3.6891 0.35138 0 2.6352-2.1081 2.6352-2.1081l-10.365-13 23.716-20.73 10.014 14.581 5.4459-4.3919s-24.595-40.054-24.946-40.054c-0.35128 0-6.1486 3.5135-6.1486 3.5135l12.297 18.622s-24.068 17.743-26.176 19.5c-1.9324 0-15.811-17.392-15.811-17.392l-4.7432 4.0406z" style="fill-rule:evenodd;fill:#f1e36c;stroke-width:1pt"/>
 <path d="m15.294 30.078 14.405 16.338 24.068-18.095-11.595-17.568-26.878 19.324z" style="fill-rule:evenodd;fill:#fff;stroke-width:1pt"/>
 <path d="m37.429 57.484 9.3109 11.595 2.2838-1.7567-8.0811-10.014s2.6352-2.9866 4.3919-3.1622c2.8109 2.6351 8.4325 9.6622 8.4325 9.6622l14.581-11.068-9.6622-13.878-21.257 18.622z" style="fill-rule:evenodd;fill:url(#linearGradient680);stroke-width:1pt"/>
 <path d="m8.4656 35.921c-0.7027-0.17569 20.531 32.63 21.058 32.63 0.52698 0 11.77 4.7434 11.77 4.7434l-0.70267 2.2837-11.77-3.3377-22.815-33.662 2.4595-2.6579z" style="fill-rule:evenodd;fill:#f1e36c;stroke-width:1pt"/>
 <path d="m42.173 57.132 7.2028 9.3109 3.1622-2.6352-7.5541-9.1352-2.8109 2.4595z" style="fill-rule:evenodd;fill:#f1e36c;stroke-width:1pt"/>
 <path d="m58.522 39.802-13.611 11.929c1.1725 3.4665 5.0978 6.1683 6.7291 8.1055 2.498-18.76 7.7487-17.18 13-10.4l-6.1175-9.6348z" style="fill-rule:evenodd;fill:url(#linearGradient683);stroke-width:1pt"/>
 <path d="m41.088 73.295-0.61174 2.2941-11.776-3.0587 0.45876-3.9763 11.929 4.7409z" style="fill-rule:evenodd;fill:url(#linearGradient688);stroke-width:1pt"/>
 <path d="m28.7 72.377 0.76462-3.5175-16.517-25.081-0.91761 3.3646 16.67 25.234z" style="fill-rule:evenodd;fill:url(#linearGradient693);stroke-width:1pt"/>
 <path d="m15.242 30.015 6.1174 6.882 26.152-18.352-5.3528-7.7996-26.917 19.27z" style="fill-rule:evenodd;fill:#bae6ff;stroke-width:1pt"/>
</svg>
