<svg version="1.0" viewBox="0 0 90 90" xmlns="http://www.w3.org/2000/svg" xmlns:xlink="http://www.w3.org/1999/xlink">
 <defs>
  <linearGradient id="linearGradient2415" x1="50.644" x2="35.752" y1="5.3679" y2="68.044" gradientTransform="matrix(.61428 0 0 .61428 1.7859 -3.0618)" gradientUnits="userSpaceOnUse">
   <stop style="stop-color:#7fa8e3;stop-opacity:.74118" offset="0"/>
   <stop style="stop-color:#fff;stop-opacity:0" offset="1"/>
  </linearGradient>
 </defs>
 <g transform="matrix(2.4781 0 0 2.4781 -5.1216 6.1542)">
  <path d="m5.6698 29.469c-1.1003-0.50013-2.6006-2.1005-1.8004-4.301 0.40007-2.4005 7.6017-23.605 9.2021-24.605 1.0002-0.90019 2.4506-1.2503 4.501-0.70015 1.7004 0.40009 17.004 4.401 17.904 5.2012 0.90023 0.80019 1.6004 1.4503 0.90023 3.2007-0.50009 0.90018-6.4515 21.105-6.5515 22.405-0.4001 1.4003-1.5503 3.1007-3.4508 3.0007-1.9004-0.10004-19.304-3.9009-20.705-4.201z" style="fill-opacity:.30147;fill-rule:evenodd;stroke-width:1pt"/>
  <path d="m4.5098 27.613c-1.1003-0.50013-2.6006-2.1005-1.8004-4.301 0.40006-2.4005 7.6017-23.605 9.2021-24.605 1.0002-0.90019 2.4506-1.2503 4.501-0.70015 1.7004 0.40009 17.004 4.401 17.904 5.2012 0.90023 0.80019 1.6004 1.4503 0.90023 3.2007-0.50009 0.90018-6.4515 21.105-6.5515 22.405-0.4001 1.4003-1.5503 3.1007-3.4508 3.0007-1.9004-0.10004-19.304-3.9009-20.705-4.201z" style="fill-rule:evenodd;fill:#3d4e67;stroke-width:1pt"/>
  <path d="m6.8104 25.913c-1.1502-0.30006-2.8007-0.60017-2.2005-2.4005 1.1003-4.401 6.7015-21.305 9.102-23.405 0.55015-0.50013 2.4005-0.70016 5.9013 0.4001 4.0009 1.2002 12.103 3.9008 12.903 4.3009 0.80015 0.4001 1.1003 0.4001 0.50009 2.2005-0.90018 1.8004-4.9011 17.204-5.9013 19.804-0.70011 1.8504-0.85017 2.7006-2.0505 2.7006" style="fill-rule:evenodd;fill:#fff;stroke-width:1pt"/>
  <path d="m12.879 2.6628s1.2012-2.4025 4.2043-1.6817c3.0031 0.72075 14.775 3.8439 14.655 4.8049-0.12012 0.96098-2.2823 6.6067-2.4024 7.0872-0.12012 0.48049-11.171 0.24024-15.376 2.7628-4.2043 2.5226-7.3275 4.6848-7.3275 4.6848s4.3244-13.454 6.2464-17.658z" style="fill-rule:evenodd;fill:url(#linearGradient2415);stroke-width:1pt"/>
  <path d="m13.461 3.4781s0.73535-2.0531 3.7384-1.3323c3.0031 0.72075 14.309 2.9122 14.189 3.8732-0.12012 0.96098-1.9329 6.3738-2.053 6.8543-0.12012 0.48049-3.135 1.172-10.717-0.44011-4.3208 0.19318-8.3175-0.7893-8.3175-0.7893s1.238-3.9614 3.1599-8.1657z" style="fill-rule:evenodd;fill:#a4cff8;stroke-width:1pt"/>
  <path d="m7.2054 18.61-1.2812 4.4841c-0.12846 0.44962 0.51761 0.91304 0.97544 1.0082l16.917 3.5159c0.49277 0.10241 1.2803 0.048475 1.4486-0.42584l1.6815-4.7389-19.742-3.8435z" style="fill-opacity:.9843;fill-rule:evenodd;fill:#188103;stroke-width:1pt"/>
  <path d="m13.786 21.638s3.3776 0.75705 3.4359 0.75705 1.6888-4.717 1.6888-4.717l6.4641-2.8535-1.4559-0.29118-4.95 1.9218 1.6306-2.3876c0.38967-0.57059 1.1233-1.0805 1.0482-1.4559-0.060796-0.304 0.37939-1.7791 0-1.2812l-3.727 4.8917-0.23294-3.2612-1.5141-1.1065 0.64058 3.6688 0.23294 1.8053-3.2612 4.3094z" style="fill-rule:evenodd;fill:#9c3031;stroke-width:1pt"/>
  <path d="m20.774 6.0895c-1.2046 0.64704-2.6544 0.83162-4.1347 0.23294-0.72133-0.26336-0.68147 1.632-1.8053 1.6306-1.1943-0.001648-2.4682 1.0778-1.8053 3.1447 0.19914 0.68066 1.3976 0.3239 1.9218 1.8635 0.43657 1.234 1.7728 0.66911 3.2612 2.2129 0.84055 0.83896 2.315-0.8439 3.727 0 1.79 0.99593 5.3816 0.95 6.1147-0.69882 0.48054-1.1391-0.85411-2.6788 0.81528-3.3776 0 0-0.67588-2.9653-0.69881-2.9117-0.75706 1.6306-3.727-1.2812-3.727-1.2812-1.8635 1.3006-2.4313-1.5382-3.6688-0.81529z" style="fill-rule:evenodd;fill:#9ccf00;stroke-width:1pt"/>
  <path d="m24.607 15.365c1.4458 0.074322 2.3876-0.64058 2.3876-0.64058 0.42325-0.001258 0.14597-1.8671 0.69882-2.6206 0.61811-0.85822 0.24884-1.7708 0.40765-2.4459 0.047595-0.18827-0.87002-0.081394-0.99 0.87352-0.14456 1.2769 0.063887 2.6635-0.52956 3.4728-0.47419 0.64661-2.1976 0.52318-2.6734 0.89484-0.14545 0.11364 0.42586 0.45484 0.69882 0.46588z" style="fill-rule:evenodd;fill:#058c00;stroke-width:1pt"/>
  <path d="m18.421 12.69c0.64279 1.3156 1.9993 0.18538 2.823 0.82469 0.85741 0.64896 2.4423 0.021854 2.4423 0.88812 0 0.09516 0.077736 0.38749-0.39648 0.5868-0.40982 0.1782-1.8726-0.43436-3.0926-0.39648-0.65988 0.021031-1.0246 0.82849-1.6335 0.36476-0.47572-0.35022-1.224-1.228-2.2362-1.3322-0.89687-0.093753-1.9507-2.0934-1.9507-2.0934s-0.3179-1.1291 0.44406-0.4282c2.0492 1.8815 3.1518 0.60364 3.6001 1.5859z" style="fill-rule:evenodd;fill:#058c00;stroke-width:1pt"/>
  <path d="m16.55 6.9805c-0.58183 0.60703-1.0934 0.82657-1.2053 1.237-0.062507 0.2292 0.074009 1.2 1.0784 0.5868 0 0 0.8564-0.72953 1.5384-0.5868 0.031014 0.006647 0.76125-0.60266 0.76125-0.60266-1.6758-0.16916-0.99042-0.36894-1.4115-0.65023-0.44433-0.30743-0.59444-0.15364-0.76125 0.015858z" style="fill-rule:evenodd;fill:#058c00;stroke-width:1pt"/>
 </g>
 <g transform="matrix(3 0 0 3 -.022354 -.16413)">
  <path d="m22.932 29.25c1.519-0.3303 7.3175-6.3207 6.6911-7.5264-0.67057-2.2747-2.9013-1.667-3.3456-2.5431-0.28075-0.90352 0.50794-5.7583-0.45154-6.4048-2.0831-0.92972-5.9796-1.1034-7.0235 1.1124-0.62937 2.2811 0.56709 6.0264-0.54733 6.3946-1.1144 0.36815-1.7332 1.1979-1.6106 1.8841 0.12258 0.68625 4.7097 7.6779 6.2875 7.0833z" style="fill-rule:evenodd;fill:#b01911;stroke-width:1pt"/>
  <path d="m22.93 27.274c1.1452-0.19144 5.1629-4.1256 4.628-5.1124-0.53495-0.98691-2.2909-0.62616-2.5476-1.3568-0.25669-0.73072 0.018781-6.5283-0.87025-6.6151-0.88902-0.086888-3.9106-0.45631-3.9975 0.43268-0.086856 0.88906 0.70665 6.6425-0.12769 6.8829-0.83434 0.24038-1.767 0.093565-1.6413 0.64433 0.12569 0.55076 3.3785 5.5232 4.5564 5.1245z" style="fill-rule:evenodd;fill:#ffc93f;stroke-width:1pt"/>
  <path d="m23.726 14.124s0.86169-0.076783 0.96577 0.94853c0.1041 1.0252 0.079107 5.9065 0.43365 6.0154 1.0526 0.059501 2.7927 0.81131 2.6349 1.4768-0.23941 1.1836-4.0282 4.6758-4.6827 4.7852-0.65442 0.10934 2.8398-3.5354 2.1576-4.5986-0.68223-1.0632-2.0673-0.69715-2.1441-1.5588-0.076752-0.86164-0.63037-6.7898-0.18319-6.9318 0.44714-0.142 1.0526 0.059542 0.81802-0.13668z" style="fill-rule:evenodd;fill:#ff933d;stroke-width:1pt"/>
  <path d="m21.034 14.585s-0.31337 6.3757 0.06855 6.6482c0.38189 0.2725 1.2901-5.16-0.06855-6.6482z" style="fill-rule:evenodd;fill:#fff;stroke-width:1pt"/>
  <path d="m22.113 26.278s-2.4281-2.4531-2.5975-3.0639c-0.16934-0.61074 0.99793-0.26772 0.99793-0.26772s1.1577 3.1027 1.5995 3.3316z" style="fill-rule:evenodd;fill:#fff;stroke-width:1pt"/>
 </g>
</svg>
