<svg version="1.0" viewBox="0 0 90 90" xmlns="http://www.w3.org/2000/svg" xmlns:xlink="http://www.w3.org/1999/xlink">
 <defs>
  <linearGradient id="linearGradient811" x1="26.038" x2="26.161" y1="28.163" y2="57.26" gradientTransform="scale(1.5632 .63972)" gradientUnits="userSpaceOnUse">
   <stop offset="0"/>
   <stop style="stop-color:#fff" offset="1"/>
  </linearGradient>
  <linearGradient id="linearGradient3665" x1="35.061" x2="67.491" y1="26.619" y2="46.469" gradientUnits="userSpaceOnUse">
   <stop style="stop-color:#0c1535;stop-opacity:.69804" offset="0"/>
   <stop style="stop-color:#fff;stop-opacity:0" offset="1"/>
  </linearGradient>
 </defs>
 <g transform="matrix(.92896 0 0 .92896 8.5897 2.5763)">
  <path transform="matrix(1.0374 0 0 .95452 -4.4536 3.9761)" d="m4.5936 19.007 0.8352 12.11s2.9232 1.2528 2.7144 1.4616 2.9232 37.584 2.9232 37.584 0 2.5056 2.088 3.9672c2.0881 1.4617 20.671 15.034 22.551 15.869 1.8792 0.8352 3.7584 1.044 6.4728-0.2088 2.7145-1.2528 19.21-7.9345 21.715-8.9785 2.5057-1.044 4.5937-2.088 5.2201-6.6817 0.6264-4.5936 4.1148-36.648 4.1148-36.648 0.443 0.1477 0-3.4422 1.2529-3.2334 1.2528 0.2088 3.1932 0 3.8196-3.5496s1.2528-7.9345 1.2528-7.9345-1.1916-2.8874-3.2797-4.5578c-2.0879-1.6704-31.402-14.947-32.238-15.156-0.8352-0.20879-6.6099 0.61591-9.3244 1.6599-2.7144 1.044-27.821 8.2403-30.118 14.296z" style="fill-opacity:.29825;fill-rule:evenodd"/>
  <path transform="translate(-3.8388 -2.2147)" d="m4.5936 19.007 0.8352 12.11s2.9232 1.2528 2.7144 1.4616 2.9232 37.584 2.9232 37.584 0 2.5056 2.088 3.9672c2.0881 1.4617 20.671 15.034 22.551 15.869 1.8792 0.8352 3.7584 1.044 6.4728-0.2088 2.7145-1.2528 19.21-7.9345 21.715-8.9785 2.5057-1.044 4.5937-2.088 5.2201-6.6817 0.6264-4.5936 4.1148-36.648 4.1148-36.648 0.443 0.1477 0-3.4422 1.2529-3.2334 1.2528 0.2088 3.1932 0 3.8196-3.5496s1.2528-7.9345 1.2528-7.9345-1.1916-2.8874-3.2797-4.5578c-2.0879-1.6704-31.402-14.947-32.238-15.156-0.8352-0.20879-6.6099 0.61591-9.3244 1.6599-2.7144 1.044-27.821 8.2403-30.118 14.296z" style="fill-rule:evenodd;fill:#1f1d1c"/>
  <path transform="translate(-3.8388 -2.2147)" d="m9.3961 20.051c-0.62641 2.2968-0.83522 6.0553 0 7.9345 1.044 0.8352 12.528 5.0112 28.606 13.154 7.0992-3.5497 32.573-9.6049 34.035-10.44s2.2969-2.2968 2.5057-3.5496 0.8352-4.8025-0.6264-5.6377c-4.5937-3.9672-30.903-15.034-32.782-14.616-1.8792 0.41761-25.056 7.7258-31.738 13.155z" style="fill-rule:evenodd;fill:#ffec98"/>
  <path transform="translate(-3.8388 -2.2147)" d="m20.463 19.634c0.522-1.044 20.358-8.4565 21.402-8.0389s1.566 0.3132 3.0277 1.1484c1.4616 0.8352 16.704 7.7257 16.495 7.7257s-20.671 7.9345-20.671 7.9345-19.627-7.0993-20.254-8.7697z" style="fill-rule:evenodd"/>
  <path transform="translate(-3.9864 -2.3623)" d="m20.045 19.842 5.4289 2.2968s5.22-2.2968 7.308-3.132c2.0881-0.8352 7.3081-2.5056 7.3081-2.5056l0.6264-4.8025s-10.022 2.9232-11.902 3.9672c-1.8792 1.0441-7.9345 2.9233-8.7697 4.1761z" style="fill-rule:evenodd;fill:#e9a341"/>
  <path transform="translate(-3.8388 -2.2147)" d="m42.387 11.908-0.6264 5.4289s11.484 5.4288 11.693 5.4288 8.3521-2.088 8.3521-2.088-16.286-8.1433-19.419-8.7697z" style="fill-rule:evenodd;fill:#e7a240"/>
  <path transform="translate(-3.8388 -2.2147)" d="m27.353 23.183s8.5609-4.8024 12.11-4.5936 13.676 5.1156 12.737 5.22c-1.4616 1.044-11.693 4.8025-11.902 4.5937-9.1873-3.7584-12.528-5.4289-12.946-5.2201z" style="fill-rule:evenodd;fill:url(#linearGradient811)"/>
  <path transform="translate(-3.8388 -2.2147)" d="m13.154 31.744s5.6376 1.1484 24.639 11.171c2.5056 0.8352 17.748-8.0389 32.782-9.9181-4.1761 18.166-3.9672 35.914-4.5936 37.376s-0.6264 4.3848-4.1761 5.8465c-5.4288 1.2528-21.089 8.3521-25.056 10.022-2.088-1.044-11.693-11.693-20.254-14.825-1.044 0-2.9233-35.288-3.3409-39.672z" style="fill-rule:evenodd;fill:#578cc7"/>
  <path d="m9.154 29.318s15.207 5.02 24.804 11.369c1.9194 13.879 1.0335 35.435 0 43.703-2.6577-1.0336-19.342-15.65-21.999-15.208 0-0.443-2.6576-39.569-2.8053-39.864z" style="fill-rule:evenodd;fill:#4c5b86"/>
  <path transform="translate(-3.8388 -2.2147)" d="m37.584 45.316 0.4176 9.3961s2.7144-4.176-0.4176-9.3961z" style="fill-rule:evenodd;fill:#1f1d1c"/>
  <path d="m33.516 32.566 0.443 6.3488-28.643-13.288s-1.3288-8.2682 0.14764-7.3823c1.4765 0.8859 27.905 14.174 28.053 14.322z" style="fill-rule:evenodd;fill:#e7a240"/>
  <path transform="translate(-3.8388 -2.2147)" d="m39.046 62.856-2.088 23.595 2.088-1.044s0.8352-15.869 0-22.551z" style="fill-rule:evenodd;fill:#1f1d1c"/>
  <path transform="translate(-3.8388 -2.2147)" d="m9.3961 20.26s16.287 7.3081 19.21 9.3961 7.9345 5.4288 8.9785 5.22-25.892-9.8137-28.188-14.616z" style="fill-opacity:.99684;fill-rule:evenodd;fill:#1f1d1c"/>
  <path transform="translate(-3.8388 -2.2147)" d="m41.343 34.459s12.946-5.22 16.287-6.6816c3.3408-1.4616 15.242-6.0553 16.704-6.2641 1.4616-0.2088-30.068 13.781-32.991 12.946z" style="fill-rule:evenodd;fill:#1f1d1c"/>
  <path d="m34.254 45.116c-15.306-9.2033-17.767-7.7761-24.657-6.6441-0.09843-2.4116-0.49215-7.0378-0.29528-9.597 6.8901 2.2639 16.143 6.152 24.804 11.664 11.32-3.3467 21.753-7.8745 32.925-10.04-0.6398 2.4608-1.2797 4.9216-1.9195 7.3823-9.2524-0.246-20.129 3.199-30.858 7.2347z" style="fill-rule:evenodd;fill:url(#linearGradient3665);stroke-width:1pt"/>
 </g>
</svg>
